<svg width="41" height="41" viewBox="0 0 41 41" fill="none" xmlns="http://www.w3.org/2000/svg">
<path d="M20.5002 27.1666C24.1821 27.1666 27.1668 24.1819 27.1668 20.5C27.1668 16.8181 24.1821 13.8333 20.5002 13.8333C16.8183 13.8333 13.8335 16.8181 13.8335 20.5C13.8335 24.1819 16.8183 27.1666 20.5002 27.1666Z" stroke="#FBFBFB" stroke-width="1.5" stroke-linecap="round" stroke-linejoin="round"/>
<path d="M5.5 30.5V10.5C5.5 7.73858 7.73858 5.5 10.5 5.5H30.5C33.2614 5.5 35.5 7.73858 35.5 10.5V30.5C35.5 33.2614 33.2614 35.5 30.5 35.5H10.5C7.73858 35.5 5.5 33.2614 5.5 30.5Z" stroke="#FBFBFB" stroke-width="1.5"/>
<path d="M29.6665 11.35L29.6832 11.3315" stroke="#FBFBFB" stroke-width="1.5" stroke-linecap="round" stroke-linejoin="round"/>
</svg>
