<svg width="41" height="41" viewBox="0 0 41 41" fill="none" xmlns="http://www.w3.org/2000/svg">
<path d="M35.5002 13C33.346 12.9976 31.2808 12.1408 29.7576 10.6175C28.2344 9.09434 27.3776 7.02914 27.3752 4.875C27.3752 4.70924 27.3093 4.55028 27.1921 4.43307C27.0749 4.31586 26.9159 4.25001 26.7502 4.25H20.5002C20.3344 4.25001 20.1754 4.31586 20.0582 4.43307C19.941 4.55028 19.8752 4.70924 19.8752 4.875V24.875C19.875 25.5461 19.6947 26.2048 19.3532 26.7824C19.0116 27.36 18.5213 27.8355 17.9335 28.159C17.3456 28.4826 16.6816 28.6425 16.0109 28.6221C15.3401 28.6016 14.6872 28.4016 14.1201 28.0428C13.553 27.684 13.0926 27.1796 12.7869 26.5822C12.4812 25.9848 12.3414 25.3164 12.3821 24.6465C12.4227 23.9767 12.6424 23.3301 13.0181 22.7741C13.3939 22.2181 13.9119 21.7731 14.5183 21.4856C14.625 21.4349 14.7152 21.3549 14.7784 21.255C14.8416 21.1551 14.8751 21.0393 14.8751 20.9211L14.8752 14.415C14.8752 14.3236 14.8552 14.2333 14.8165 14.1506C14.7779 14.0678 14.7216 13.9945 14.6515 13.9358C14.5815 13.8771 14.4995 13.8346 14.4112 13.811C14.3229 13.7875 14.2305 13.7836 14.1406 13.7996C12.0338 14.177 10.0784 15.1475 8.50381 16.5972C6.92923 18.0469 5.80083 19.9157 5.25105 21.9842C4.70126 24.0527 4.75291 26.2351 5.39992 28.2753C6.04693 30.3155 7.26246 32.1288 8.90385 33.5024C10.5452 34.876 12.5444 35.7529 14.6667 36.0302C16.7889 36.3075 18.9463 35.9737 20.8855 35.0679C22.8247 34.1622 24.4654 32.7221 25.6149 30.9166C26.7644 29.1112 27.375 27.0153 27.3752 24.875L27.3751 18.2245C29.8212 19.7191 32.6336 20.5068 35.5002 20.5C35.6659 20.5 35.8249 20.4341 35.9421 20.3169C36.0593 20.1997 36.1252 20.0408 36.1252 19.875V13.625C36.1252 13.4592 36.0593 13.3003 35.9421 13.1831C35.8249 13.0659 35.6659 13 35.5002 13ZM34.8752 19.2367C32.0812 19.1223 29.3826 18.1889 27.1151 16.5525C27.0217 16.4853 26.9116 16.4452 26.7969 16.4366C26.6822 16.428 26.5674 16.4512 26.4651 16.5036C26.3627 16.5561 26.2768 16.6358 26.2168 16.7339C26.1568 16.832 26.1251 16.9448 26.1251 17.0598L26.1252 24.875C26.1246 26.7452 25.5996 28.5778 24.6097 30.1646C23.6199 31.7513 22.2049 33.0287 20.5255 33.8517C18.8461 34.6746 16.9695 35.0101 15.109 34.8201C13.2485 34.6301 11.4786 33.9221 10.0002 32.7766C8.52186 31.6311 7.39436 30.094 6.74578 28.3399C6.09719 26.5857 5.95351 24.6849 6.33104 22.8532C6.70858 21.0215 7.59221 19.3323 8.88157 17.9776C10.1709 16.6229 11.8143 15.657 13.6252 15.1894L13.6251 20.5443C12.8649 20.9831 12.2337 21.6143 11.7947 22.3744C11.3558 23.1345 11.1247 23.9967 11.1247 24.8744C11.1246 25.7522 11.3556 26.6145 11.7944 27.3746C12.2333 28.1348 12.8644 28.766 13.6246 29.205C14.3847 29.6439 15.2469 29.875 16.1246 29.875C17.0024 29.8751 17.8647 29.6441 18.6248 29.2052C19.385 28.7664 20.0162 28.1352 20.4551 27.3751C20.894 26.615 21.1251 25.7527 21.1252 24.875V5.5H26.1458C26.3002 7.76429 27.2695 9.89602 28.8743 11.5008C30.4791 13.1057 32.6109 14.0749 34.8752 14.2294V19.2367Z" fill="#FBFBFB"/>
</svg>
